<svg width="405" height="131" viewBox="0 0 405 131" fill="none" xmlns="http://www.w3.org/2000/svg">
<path d="M0 0.185547L49.1547 23.5912L67.2895 75.1652V23.5912L95.7249 0.185547V130.186L49.1547 105.571L28.7266 56.3744V105.571L0 130.186V0.185547Z" fill="black"/>
<path d="M111.727 0H171.59V27.7344H141.316V51.7578H167.586V78.8086H141.316V102.539H171.785V130.371H111.727V0Z" fill="black"/>
<path d="M190.125 0H222.938C231.336 20.4427 235.926 32.1615 236.707 35.1562H237.098C237.228 34.2448 238.465 30.9245 240.809 25.1953L250.77 0H283.582L253.309 62.207L286.121 130.371H253.309C242.827 105.827 237.358 92.6107 236.902 90.7227H236.512C235.405 94.8893 233.94 99.0234 232.117 103.125L220.105 130.371H187.781L219.91 62.5977L190.125 0Z" fill="black"/>
<path d="M404.469 130.371H373.707L368.727 108.594H337.477L332.301 130.371H302.125L336.695 0H369.898L404.469 130.371ZM363.062 85.1562L353.102 29.7852H352.711L342.848 85.1562H363.062Z" fill="black"/>
</svg>
